<?xml version="1.0" standalone="no"?>
<!DOCTYPE svg PUBLIC "-//W3C//DTD SVG 20010904//EN"
 "http://www.w3.org/TR/2001/REC-SVG-20010904/DTD/svg10.dtd">
<svg version="1.0" xmlns="http://www.w3.org/2000/svg"
 width="314.000000pt" height="160.000000pt" viewBox="0 0 314.000000 160.000000"
 preserveAspectRatio="xMidYMid meet">

<g transform="translate(0.000000,160.000000) scale(0.100000,-0.100000)"
fill="#000000" stroke="none">
<path d="M370 820 l0 -360 45 0 45 0 0 360 0 360 -45 0 -45 0 0 -360z"/>
<path d="M490 820 l0 -360 45 0 45 0 0 360 0 360 -45 0 -45 0 0 -360z"/>
<path d="M2560 820 l0 -360 45 0 45 0 0 360 0 360 -45 0 -45 0 0 -360z"/>
<path d="M2680 820 l0 -360 45 0 45 0 0 360 0 360 -45 0 -45 0 0 -360z"/>
<path d="M260 815 l0 -285 40 0 40 0 0 285 0 285 -40 0 -40 0 0 -285z"/>
<path d="M2800 815 l0 -285 40 0 40 0 0 285 0 285 -40 0 -40 0 0 -285z"/>
<path d="M140 820 l0 -210 29 0 c16 0 36 -3 45 -6 14 -5 16 17 16 210 l0 216
-45 0 -45 0 0 -210z"/>
<path d="M2910 814 c0 -193 2 -215 16 -210 9 3 29 6 45 6 l29 0 0 210 0 210
-45 0 -45 0 0 -216z"/>
<path d="M0 820 l0 -40 61 0 60 0 -3 38 -3 37 -57 3 -58 3 0 -41z"/>
<path d="M600 820 l0 -40 971 0 970 0 -3 38 -3 37 -967 3 -968 2 0 -40z"/>
<path d="M3027 853 c-4 -3 -7 -21 -7 -40 l0 -33 60 0 60 0 0 40 0 40 -53 0
c-30 0 -57 -3 -60 -7z"/>
</g>
</svg>
