<?xml version="1.0" standalone="no"?>
<!DOCTYPE svg PUBLIC "-//W3C//DTD SVG 20010904//EN"
 "http://www.w3.org/TR/2001/REC-SVG-20010904/DTD/svg10.dtd">
<svg version="1.0" xmlns="http://www.w3.org/2000/svg"
 width="728.000000pt" height="596.000000pt" viewBox="0 0 728.000000 596.000000"
 preserveAspectRatio="xMidYMid meet">

<g transform="translate(0.000000,596.000000) scale(0.100000,-0.100000)"
fill="#000000" stroke="none">
<path d="M3642 5233 c1 -4 20 -43 41 -87 21 -43 36 -80 33 -83 -2 -3 -31 4
-64 16 -127 43 -250 62 -444 68 -106 3 -188 2 -188 -3 0 -5 26 -26 58 -46 31
-20 72 -52 90 -71 l33 -34 -193 -6 c-167 -5 -242 -13 -296 -32 -8 -3 16 -29
60 -64 40 -32 86 -72 102 -89 27 -29 28 -32 10 -38 -240 -83 -404 -180 -468
-276 -42 -63 -112 -268 -152 -448 -24 -107 -34 -132 -65 -172 -72 -92 -102
-205 -102 -384 l-1 -130 -41 23 c-129 72 -269 12 -311 -133 -28 -96 -16 -235
31 -359 20 -55 54 -130 75 -166 l37 -66 -39 -41 c-21 -23 -37 -46 -34 -51 3
-5 20 -11 37 -15 l31 -6 -18 -27 c-86 -130 -162 -277 -188 -360 -34 -112 -30
-121 33 -82 l34 20 -6 -54 c-8 -68 7 -201 34 -292 41 -135 122 -266 230 -370
45 -43 51 -47 46 -25 -3 14 -9 52 -12 86 l-7 61 168 -165 c164 -160 360 -332
378 -332 9 0 2 138 -10 198 -6 27 7 17 113 -86 119 -117 266 -235 356 -286 26
-15 47 -23 47 -19 -1 4 -7 34 -14 66 -8 31 -13 57 -11 57 2 0 39 -21 82 -47
83 -49 165 -89 252 -123 l53 -21 -6 23 c-3 13 -9 33 -12 46 -6 22 -6 22 117
23 68 0 160 4 204 8 44 4 81 7 83 6 1 -1 -5 -19 -13 -40 -9 -20 -14 -39 -12
-41 6 -6 173 63 287 119 58 29 108 53 113 55 16 8 5 -18 -29 -68 -19 -28 -33
-54 -31 -57 8 -7 163 92 253 163 45 35 128 105 185 156 56 50 100 85 97 77 -3
-9 -9 -47 -13 -85 -3 -38 -8 -79 -11 -91 -2 -13 -1 -23 4 -23 21 0 195 153
367 322 104 103 191 188 193 188 1 0 0 -10 -2 -22 -3 -13 -7 -63 -10 -113 l-6
-90 61 65 c105 113 164 214 214 370 25 76 28 100 29 226 l1 140 46 -33 c61
-43 69 -43 58 6 -21 95 -103 268 -199 421 -28 44 -47 80 -43 80 5 -1 27 -5 51
-9 23 -5 42 -6 42 -2 0 3 -19 25 -41 49 l-42 43 28 56 c15 30 45 110 67 177
35 103 41 133 41 206 0 138 -51 242 -138 281 -57 26 -122 24 -181 -6 -27 -14
-50 -25 -51 -25 -2 0 0 39 3 88 11 159 -28 336 -92 415 -46 56 -47 60 -89 237
-64 264 -111 379 -212 515 -218 293 -557 508 -959 609 -142 35 -156 38 -152
29z m218 -142 c418 -120 792 -402 951 -714 40 -77 120 -389 105 -404 -2 -3
-18 3 -35 12 -21 10 -31 23 -31 38 0 48 -43 177 -95 283 -118 243 -325 432
-640 583 -124 60 -221 98 -229 90 -3 -2 2 -38 10 -79 22 -117 22 -117 -33 -77
-64 46 -151 89 -248 120 -94 31 -200 57 -234 57 -22 0 -23 -1 -9 -17 16 -18
88 -157 88 -169 0 -3 -8 -3 -17 1 -73 30 -171 47 -310 52 -96 4 -153 2 -153
-4 0 -5 11 -20 25 -33 38 -36 99 -131 89 -139 -5 -4 -47 -20 -94 -35 -184 -59
-450 -191 -478 -237 -26 -41 -44 -104 -76 -258 l-31 -153 -47 -18 c-27 -10
-48 -14 -48 -10 0 40 55 259 102 405 30 96 201 206 460 296 68 24 112 44 110
51 -6 21 -104 137 -131 155 l-26 17 30 8 c53 14 296 21 375 10 41 -6 76 -9 78
-7 2 2 -21 40 -51 84 l-56 81 78 0 c158 0 326 -44 476 -123 l82 -44 -8 38
c-13 55 -40 132 -51 147 -14 16 -5 15 72 -7z m-1065 -1135 c81 -23 225 -76
165 -61 -48 12 -335 17 -390 7 -150 -28 -258 -104 -294 -207 -38 -110 -31
-303 21 -570 15 -79 23 -152 21 -185 -7 -102 -67 -191 -168 -248 -49 -28 -50
-29 -31 -46 20 -18 20 -18 -8 -42 -56 -47 -241 -313 -241 -346 0 -4 11 -8 25
-8 14 0 25 -2 25 -3 0 -2 -9 -39 -21 -83 -15 -58 -21 -111 -21 -199 -1 -134
14 -215 62 -345 16 -46 30 -86 30 -89 0 -13 -54 76 -85 137 -71 145 -102 300
-86 429 6 43 13 88 17 100 5 18 3 21 -15 16 -12 -3 -21 -3 -21 -1 0 3 18 43
39 90 54 117 126 236 169 281 l36 37 -44 0 -45 0 90 91 c108 109 175 159 175
132 1 -11 9 -2 22 22 28 54 27 110 -4 225 -51 186 -60 443 -22 598 39 157 113
247 239 289 63 21 250 10 360 -21z m2020 9 c202 -56 292 -323 240 -717 -8 -62
-24 -147 -36 -188 -28 -94 -28 -142 0 -202 23 -51 33 -62 24 -27 -6 20 -5 20
23 6 35 -18 185 -157 214 -197 l21 -29 -34 6 c-20 3 -37 1 -41 -6 -4 -6 -2
-11 3 -11 20 0 100 -120 165 -250 36 -71 66 -133 66 -138 0 -6 -10 -8 -22 -4
-17 4 -20 2 -15 -12 4 -10 12 -50 18 -89 21 -132 -6 -275 -81 -434 -52 -110
-73 -137 -39 -50 60 152 77 377 39 535 -11 46 -20 85 -20 88 0 2 11 4 25 4 14
0 25 3 25 6 0 4 -26 49 -57 102 -61 102 -113 172 -173 232 -33 33 -36 41 -24
51 20 17 18 22 -18 43 -105 61 -184 164 -194 252 -4 36 1 73 20 139 55 194 69
429 36 583 -23 106 -109 193 -229 230 -110 34 -374 18 -546 -32 -61 -18 96 47
175 72 182 59 313 70 435 37z m-1723 -351 c35 -20 85 -55 112 -77 43 -36 48
-38 41 -16 -4 13 -15 38 -25 56 l-18 31 51 -21 c29 -12 94 -50 146 -85 104
-70 97 -72 76 24 -6 26 1 21 63 -41 38 -38 71 -76 73 -83 3 -9 34 15 83 65 67
68 77 74 71 49 -3 -15 -9 -42 -12 -58 l-6 -30 64 47 c53 39 206 125 223 125 3
0 -3 -15 -13 -32 -11 -18 -22 -44 -26 -58 -7 -24 -7 -24 26 6 38 36 135 99
175 114 22 9 25 8 20 -6 -3 -8 -6 -29 -6 -45 0 -23 -6 -32 -26 -40 -38 -14
-26 -19 21 -10 22 5 74 12 115 15 l74 7 -47 -32 c-26 -17 -49 -35 -53 -40 -7
-12 9 -12 21 0 6 6 51 24 101 40 125 42 205 43 260 3 114 -83 196 -291 150
-381 -9 -17 -43 -62 -75 -99 -32 -38 -68 -87 -80 -110 -22 -43 -28 -92 -11
-92 6 0 10 6 10 14 0 7 13 30 29 50 l29 36 32 -27 c43 -36 70 -96 70 -158 0
-107 -61 -166 -216 -209 -148 -41 -222 -86 -261 -159 l-14 -29 -31 42 c-17 22
-32 39 -34 38 -2 -2 6 -32 16 -67 11 -34 20 -83 20 -109 0 -33 6 -52 22 -69
19 -21 89 -164 83 -171 -1 -1 -27 6 -56 17 -58 22 -175 51 -199 50 -8 0 8 -8
35 -18 171 -61 320 -176 349 -269 l7 -22 -36 21 c-44 27 -54 19 -26 -20 36
-50 38 -85 6 -117 -25 -25 -31 -26 -93 -21 -37 4 -78 9 -92 12 -23 6 -22 4 10
-25 39 -35 101 -70 124 -70 21 0 -4 -49 -65 -126 -55 -69 -128 -128 -209 -170
-97 -49 -291 -43 -377 12 -25 16 -31 6 -10 -15 19 -21 -44 19 -77 48 -30 27
-32 22 -11 -34 5 -11 -11 4 -34 33 l-43 53 -34 -48 -34 -48 0 35 0 35 -33 -36
c-43 -49 -119 -106 -111 -84 5 12 -11 5 -49 -20 -50 -33 -60 -36 -99 -30 -63
10 -134 52 -177 104 -42 51 -91 131 -91 150 0 15 37 48 108 98 30 21 49 39 44
41 -11 3 -160 -61 -218 -95 -23 -13 -64 -26 -91 -30 -45 -5 -53 -3 -85 26 -48
42 -62 96 -55 219 6 113 37 222 101 351 73 149 150 213 286 237 l65 12 -70 1
c-38 0 -87 -6 -107 -13 -38 -14 -38 -13 -37 13 0 14 8 58 19 96 10 39 17 71
15 73 -1 1 -15 -16 -31 -39 -25 -37 -30 -39 -39 -24 -45 78 -115 124 -247 161
-110 32 -154 52 -190 91 -71 75 -61 199 23 279 28 27 29 27 50 8 12 -10 29
-35 38 -54 l16 -35 3 32 c4 42 -23 92 -97 181 -84 100 -95 123 -88 193 6 66
53 172 100 226 57 64 105 93 156 93 55 0 141 -21 225 -55 33 -13 62 -23 64
-21 2 2 -20 19 -47 37 -28 18 -50 33 -48 34 4 3 162 -12 198 -19 l34 -7 -27
16 c-21 11 -28 23 -28 45 0 15 -3 35 -6 44 -9 22 -3 21 68 -20z m-1061 -289
c73 -26 76 -31 104 -165 15 -67 35 -145 46 -172 20 -51 24 -78 11 -78 -4 0
-16 30 -26 66 -28 98 -92 177 -174 215 -77 36 -136 2 -148 -86 -5 -35 -4 -46
4 -41 7 4 12 14 12 21 0 45 180 57 188 13 2 -9 -6 -19 -17 -23 -32 -10 -90
-85 -96 -124 -4 -20 -8 -46 -11 -58 -8 -42 11 -24 29 26 28 80 115 145 144
109 12 -15 29 -69 37 -119 6 -35 5 -37 -98 -121 l-104 -86 -25 46 c-92 171
-127 343 -92 459 18 61 43 95 87 116 42 21 73 21 129 2z m3307 -9 c127 -66
136 -279 22 -523 -37 -80 -41 -85 -59 -72 -10 8 -58 43 -106 79 l-86 65 4 49
c3 32 11 54 22 63 25 18 85 28 103 17 15 -10 42 -55 67 -114 l15 -35 -5 54
c-8 72 -37 125 -85 157 -22 15 -40 30 -40 35 0 15 38 29 77 29 65 0 108 -17
120 -47 l11 -28 1 32 c2 67 -39 123 -90 123 -95 0 -205 -116 -240 -254 -7 -30
-15 -44 -21 -38 -6 6 0 37 16 83 19 57 66 260 66 286 0 2 24 15 53 28 59 28
115 32 155 11z m-306 -783 c31 -32 58 -91 58 -125 0 -18 -4 -15 -20 17 -11 22
-38 64 -60 93 -22 29 -40 55 -40 58 0 9 35 -15 62 -43z m-53 -10 c57 -67 99
-151 116 -230 16 -74 20 -183 7 -183 -4 0 -13 21 -20 46 -7 26 -14 45 -16 43
-2 -2 0 -33 4 -69 6 -54 3 -239 -4 -247 -2 -2 -16 57 -32 130 l-29 132 -6
-120 c-6 -114 -22 -224 -39 -254 -4 -7 -10 28 -14 79 -5 61 -11 88 -17 79 -5
-8 -9 -31 -9 -51 0 -37 -41 -180 -60 -208 -7 -11 -10 10 -11 70 -1 47 -4 99
-8 115 -6 28 -7 26 -19 -25 -7 -30 -21 -70 -31 -89 l-18 -34 -6 94 c-10 159
-87 371 -182 504 -19 27 -32 51 -30 53 9 9 147 -92 185 -136 46 -53 44 -45
-16 86 -23 50 -39 92 -35 92 17 0 102 -68 131 -105 18 -22 34 -42 37 -45 7 -8
-42 121 -65 168 -11 23 -18 42 -16 42 20 0 96 -50 128 -84 l38 -41 -16 40
c-10 22 -28 59 -41 82 -13 24 -20 43 -17 43 12 0 54 -30 90 -64 l34 -31 -36
79 c-20 43 -36 80 -36 82 0 15 25 -3 59 -43z m-2710 -12 c-18 -24 -90 -132
-106 -157 -9 -15 -9 -11 -1 21 15 57 33 89 70 124 37 35 58 41 37 12z m26 -71
l-35 -82 51 46 c44 39 69 55 69 43 0 -2 -16 -35 -35 -74 -19 -39 -35 -74 -35
-77 0 -4 14 9 31 29 33 37 116 92 125 82 3 -3 -4 -25 -14 -49 -28 -60 -62
-151 -59 -155 2 -1 17 17 34 40 27 39 113 107 136 107 5 0 -3 -21 -18 -47 -24
-43 -75 -159 -75 -171 0 -2 21 20 48 49 42 47 152 129 173 129 4 0 -8 -24 -28
-52 -108 -162 -182 -377 -184 -541 l-1 -62 -25 53 c-14 30 -28 73 -31 95 -5
37 -6 39 -13 17 -4 -14 -7 -68 -8 -120 l-1 -95 -24 51 c-22 48 -32 83 -54 204
-9 43 -9 41 -17 -47 -4 -51 -11 -93 -15 -93 -13 0 -40 185 -41 281 -1 109 -3
105 -39 -56 l-27 -120 -7 95 c-4 52 -3 127 2 165 5 39 8 72 6 73 -1 2 -8 -16
-15 -40 -23 -79 -32 -68 -26 32 6 101 30 182 74 254 27 43 104 129 110 123 2
-2 -12 -41 -32 -87z"/>
<path d="M3422 3355 c14 -22 30 -55 36 -74 22 -64 8 -173 -17 -131 -27 47
-158 177 -188 187 -5 2 18 -25 52 -59 95 -98 127 -185 89 -242 -37 -57 -118
-36 -264 68 -121 86 -236 156 -299 180 -55 21 -136 23 -181 3 l-35 -15 32 -1
c18 -1 54 -6 82 -12 l50 -10 -45 -43 c-25 -24 -44 -52 -44 -64 0 -77 72 -148
199 -198 35 -14 33 -14 -38 -9 -41 3 -86 8 -100 10 -58 10 69 -27 137 -41 104
-20 205 -18 298 7 101 28 127 29 132 7 3 -14 -3 -18 -30 -18 -61 0 -117 -90
-135 -216 -3 -24 -9 -47 -14 -49 -4 -3 -23 14 -43 37 -39 45 -45 39 -21 -20
24 -56 53 -81 135 -119 41 -19 87 -46 103 -61 20 -19 27 -22 27 -10 0 18 -80
95 -128 123 -35 21 -48 50 -37 87 12 42 89 149 112 154 12 3 64 -4 115 -17
136 -33 351 -33 462 -1 70 20 81 21 101 8 34 -23 97 -123 102 -166 5 -37 4
-39 -65 -89 -61 -45 -102 -87 -102 -106 0 -4 13 3 29 15 17 11 56 33 88 47 81
37 119 68 142 117 31 64 25 75 -15 28 -19 -23 -39 -42 -43 -42 -5 0 -11 27
-14 60 -3 36 -17 86 -36 125 -24 53 -37 69 -65 80 -19 8 -42 12 -51 8 -13 -4
-16 -1 -13 13 5 27 36 28 104 6 119 -40 287 -37 422 8 l57 19 -50 -5 c-27 -3
-67 -8 -89 -11 -45 -6 -43 12 3 22 80 17 181 118 181 179 -1 36 -15 58 -60 91
-31 23 -31 23 -8 31 13 4 48 10 78 14 l55 7 -40 17 c-85 39 -211 -8 -424 -159
-141 -99 -190 -124 -243 -125 -28 0 -42 6 -57 26 -44 56 -16 136 88 248 36 39
57 64 46 56 -69 -52 -122 -102 -155 -147 -42 -60 -60 -56 -60 13 0 49 15 95
47 146 27 43 9 41 -26 -4 -37 -46 -73 -145 -74 -204 -1 -30 -5 -54 -8 -54 -3
0 -15 10 -27 23 -27 28 -49 92 -61 172 -5 33 -9 47 -10 32 -2 -59 -33 -165
-54 -187 l-21 -24 -13 69 c-15 83 -51 160 -94 200 l-32 30 25 -40z"/>
<path d="M2693 2836 c23 -21 37 -26 80 -25 57 1 56 2 -18 23 -27 7 -59 16 -70
20 -15 6 -13 2 8 -18z"/>
<path d="M4550 2845 c-14 -8 -46 -17 -72 -21 -51 -7 -56 -24 -7 -24 33 0 79
20 98 44 16 19 13 19 -19 1z"/>
<path d="M3280 2733 c-23 -29 -30 -46 -28 -72 3 -33 25 -57 25 -27 0 7 5 28
13 45 10 24 19 31 41 31 29 0 46 -14 29 -25 -5 -3 -10 -22 -10 -41 0 -32 -2
-35 -22 -28 l-23 6 24 -25 c13 -15 40 -31 60 -37 93 -28 122 -43 136 -68 l14
-27 1 40 c0 88 -43 167 -129 232 -58 45 -91 44 -131 -4z"/>
<path d="M3870 2759 c-35 -14 -118 -97 -141 -141 -10 -20 -21 -63 -25 -95 l-6
-58 24 28 c16 20 43 34 92 48 63 17 116 50 116 71 0 5 -9 4 -20 -2 -18 -10
-20 -8 -20 29 0 22 -5 43 -12 47 -19 12 31 25 52 14 10 -5 25 -29 33 -52 14
-42 15 -42 24 -18 13 32 0 71 -37 110 -30 32 -40 34 -80 19z"/>
<path d="M3611 2335 c-2 -63 -20 -89 -70 -99 -43 -9 -42 -10 100 -42 79 -18
149 -33 154 -33 6 0 -16 14 -48 31 -76 41 -99 66 -119 130 l-16 53 -1 -40z"/>
<path d="M3115 2099 c-85 -13 -158 -35 -189 -60 -68 -53 -86 -170 -42 -265
l23 -50 -58 -53 c-33 -29 -59 -56 -59 -61 0 -5 39 9 88 29 278 121 560 202
857 247 148 22 414 22 514 1 41 -9 77 -15 79 -13 8 9 -184 92 -303 131 -256
84 -678 128 -910 94z m358 -40 c112 -4 119 -5 137 -29 17 -22 20 -22 20 -6 0
17 7 18 89 14 86 -4 141 -23 141 -48 0 -20 -49 -34 -128 -34 -75 -1 -86 1
-102 22 -18 21 -19 21 -25 3 -7 -23 -43 -37 -113 -46 -49 -5 -55 -4 -82 24
l-29 29 -18 -37 c-20 -39 -58 -58 -144 -68 -40 -5 -48 -3 -62 18 -9 12 -18 21
-20 18 -48 -67 -74 -98 -82 -99 -13 0 -63 62 -75 95 -17 43 -12 80 15 109 26
29 56 32 119 15 34 -9 42 -8 65 10 22 18 37 20 101 17 41 -2 128 -6 193 -7z
m502 -85 c28 -13 26 -14 -30 -8 -65 6 -75 10 -75 25 0 12 63 2 105 -17z"/>
<path d="M3733 1745 c-97 -18 -211 -50 -285 -80 -64 -26 -152 -74 -146 -80 2
-2 34 3 72 11 38 8 71 12 74 9 3 -3 -21 -30 -54 -60 -32 -30 -53 -54 -46 -55
7 0 40 14 73 31 33 16 70 29 82 27 21 -3 21 -4 -6 -31 -26 -27 -26 -28 -5 -22
13 4 37 15 53 25 17 10 51 20 77 23 25 4 67 16 92 29 46 22 47 22 93 5 l47
-18 -29 31 c-31 33 -29 48 5 30 26 -14 110 -40 129 -40 11 0 9 6 -6 23 -11 12
-25 32 -31 43 -11 21 -10 22 56 17 l67 -4 -34 16 c-18 8 -55 31 -81 50 -54 39
-77 42 -197 20z"/>
</g>
</svg>
